<?xml version="1.0" encoding="UTF-8"?>
<svg id="Capa_2" data-name="Capa 2" xmlns="http://www.w3.org/2000/svg" viewBox="0 0 15.67377 5.95965">
  <defs>
    <style>
      .cls-1 {
        fill: #fff;
      }
    </style>
  </defs>
  <g id="Capa_1-2" data-name="Capa 1">
    <g>
      <g>
        <g>
          <path class="cls-1" d="m2.04745,5.79757c0,.14712.10273.20469.22837.12829l1.1922-.72298c.12552-.07621.22831-.2588.22831-.40611v-1.34953c0-.14688-.10656-.2115-.23682-.14342l-1.175.61188c-.13056.06809-.23707.24331-.23707.39069v1.49118Z"/>
          <path class="cls-1" d="m1.64902,5.79757c0,.14712-.10304.20469-.2285.12829l-1.19208-.72298c-.12546-.07621-.22844-.2588-.22844-.40611v-1.34953c0-.14688.10656-.2115.237-.14342l1.17513.61188c.13031.06809.23688.24331.23688.39069v1.49118Z"/>
          <path class="cls-1" d="m2.08511,1.96135c-.13038-.06783-.34332-.06783-.47382,0L.237,2.67784c-.13044.06783-.13044.179,0,.24696l1.37429.71649c.1305.06783.34345.06783.47382,0l1.37441-.71649c.13038-.06796.13038-.17913,0-.24696l-1.37441-.71649Z"/>
        </g>
        <rect class="cls-1" y=".64362" width="4.96588" height=".30553"/>
        <path class="cls-1" d="m2.97209,0v1.73127c0,.09756.0798.17749.17742.17749h.12143c.03798.00271.17383.0216.25042.15204.00371.00617.00687.01064.0102.01556l.16502.28292.1761-.29986c.07709-.12905.21187-.14794.24979-.15065h.12074c.09756,0,.17736-.07993.17736-.17749V0h-1.44848Z"/>
      </g>
      <g>
        <polygon class="cls-1" points="7.44646 1.90787 6.7243 1.90787 6.15821 2.56655 6.15821 1.90787 5.52863 1.90787 5.52863 3.80718 6.15821 3.80718 6.15821 3.36013 6.34205 3.1538 6.73752 3.80718 7.48746 3.80718 6.76926 2.67236 7.44646 1.90787"/>
        <polygon class="cls-1" points="8.73842 2.63923 8.3575 1.90787 7.7319 1.90787 8.42496 3.23051 8.42496 3.80718 9.05321 3.80718 9.05321 3.21728 9.73305 1.90787 9.10744 1.90787 8.73842 2.63923"/>
        <path class="cls-1" d="m11.82124,2.08574c-.13535-.11859-.32694-.17786-.57472-.17786h-1.25109l.35963.40599v1.49332h.62957v-.49341h.26189c.24777,0,.43937-.06368.57472-.19109.13535-.12741.203-.30572.203-.53497,0-.21603-.06765-.38337-.203-.50197Zm-.44837.69105c-.03659.04056-.08931.06084-.15809.06084h-.23014v-.45234h.23014c.06789,0,.12042.01939.15746.05819s.05555.09347.05555.16401c0,.0723-.01833.12874-.05492.1693Z"/>
      </g>
      <g>
        <path class="cls-1" d="m6.30741,4.38058c.06714.05209.10071.12401.10071.21571,0,.06934-.01896.12716-.05694.17358-.03792.04642-.09101.07671-.15922.09089.08515.01253.15122.04503.19814.09743s.07041.11897.07041.19978c0,.09932-.03754.1773-.11261.23373-.07501.05656-.17862.08477-.31069.08477h-.50273v-1.17412h.49454c.11847,0,.21124.02608.27838.07823Zm-.63865.4286h.35371c.07917,0,.14058-.0165.18422-.04957.04365-.033.0655-.08037.0655-.14202,0-.05952-.02186-.10537-.0655-.13756-.04365-.03218-.10506-.04831-.18422-.04831h-.35371v.37746Zm0,.53957h.35371c.09605,0,.17043-.01814.22315-.05442.05265-.03634.07898-.08805.07898-.15519,0-.06387-.02658-.11356-.07986-.14902-.05316-.03546-.12729-.05322-.22227-.05322h-.35371v.41185Z"/>
        <path class="cls-1" d="m6.80775,4.27489c.01638.01726.02456.03867.02456.0643,0,.02564-.00819.04724-.02456.06469-.01638.01745-.03684.0262-.06141.0262s-.04491-.00856-.06097-.02582c-.01612-.01713-.02419-.03886-.02419-.06506,0-.02563.00806-.04704.02419-.0643.01606-.01713.0364-.02576.06097-.02576s.04503.00863.06141.02576Zm-.12445,1.20158v-.88346h.12855v.88346h-.12855Z"/>
        <path class="cls-1" d="m7.68674,4.64586c.06789.03735.12099.08988.15922.15759s.05732.14436.05732.23008c0,.08736-.01908.16482-.05732.23253s-.09132.12049-.15922.1584c-.06802.03798-.14511.05694-.23133.05694-.08623,0-.16351-.01895-.23172-.05694-.06821-.03792-.12131-.0907-.15922-.1584-.03798-.06771-.05694-.14517-.05694-.23253,0-.08622.01896-.16306.05694-.23046.03792-.06745.09101-.11986.15922-.15721.06821-.03741.14549-.05612.23172-.05612.08622,0,.16331.01871.23133.05612Zm-.39509.10436c-.04856.02784-.08622.06645-.11299.11583-.02677.04944-.04012.10581-.04012.16911,0,.06386.01335.12061.04012.1703.02677.04969.06444.08855.11299.11671.04856.02809.10317.04213.16376.04213.06059,0,.11519-.01405.16375-.04213.04856-.02816.08622-.06702.11299-.11671.02677-.04969.04012-.10644.04012-.1703,0-.06387-.01335-.12036-.04012-.16949-.02677-.04913-.06456-.08761-.11343-.11544-.04882-.02784-.10329-.04176-.16331-.04176-.06059,0-.1152.01392-.16376.04176Z"/>
        <path class="cls-1" d="m8.22347,4.27489c.01638.01726.02457.03867.02457.0643,0,.02564-.00819.04724-.02457.06469s-.03685.0262-.06141.0262c-.02457,0-.04491-.00856-.06097-.02582-.01612-.01713-.02419-.03886-.02419-.06506,0-.02563.00806-.04704.02419-.0643.01606-.01713.0364-.02576.06097-.02576.02456,0,.04503.00863.06141.02576Zm-.12445,1.20158v-.88346h.12855v.88346h-.12855Z"/>
        <path class="cls-1" d="m9.23183,4.67937c.05921.0609.08881.1448.08881.25181v.5453h-.13101v-.51009c0-.07804-.02211-.13894-.06632-.18259-.04422-.04365-.10537-.0655-.18341-.0655-.08622.00107-.15532.02746-.20715.07898-.05183.05165-.08188.11973-.09007.20432v.47489h-.13018v-.88346h.13018v.19405c.06059-.13101.17465-.19733.34225-.19897.10537,0,.18763.03042.24689.09127Z"/>
        <path class="cls-1" d="m10.34826,5.38396c0,.08515-.01857.15953-.05567.22314-.0371.06355-.08912.11243-.15601.1465-.06682.03414-.14448.05121-.23291.05121-.13101-.00107-.25162-.0434-.3619-.12691l.05977-.10071c.04478.0371.09114.0648.13919.08307.04805.01833.10071.02803.15802.0291.09605,0,.17321-.02746.23128-.08226.05819-.05492.08723-.12817.08723-.21987v-.13346c-.03111.05952-.07463.10505-.13056.13673-.05599.03168-.1208.04749-.19449.04749-.07804,0-.14763-.01814-.20879-.05448-.06116-.03628-.10878-.08691-.14291-.15185-.03407-.06493-.05114-.13862-.05114-.22107,0-.08188.01675-.15463.05038-.21824.0335-.06355.0805-.11349.14083-.14977.06028-.03634.12949-.05448.20753-.05448.07476,0,.14013.01581.19606.04749.05599.03168.10033.07721.13308.13673v-.17931h.131v.79094Zm-.27675-.09706c.04586-.02696.08163-.06424.10726-.11173.02564-.04749.03848-.10071.03848-.15966,0-.06059-.01285-.11463-.03848-.16212-.02563-.04749-.06141-.08458-.10726-.11136-.04585-.02677-.098-.04012-.15639-.04012-.05788,0-.10971.01335-.15557.04012-.04585.02677-.08188.06387-.10808.11136-.0262.04749-.0393.10153-.0393.16212,0,.05952.0131.11287.0393.16004.0262.04724.06223.0844.10808.11136.04586.02708.09769.04056.15557.04056.05839,0,.11054-.01348.15639-.04056Z"/>
        <path class="cls-1" d="m11.27675,4.72283c.07041.08868.10209.20973.09498.3631h-.72052c.0109.08622.04547.15475.10355.20551.05819.05076.13038.07615.2166.07615.05461,0,.10505-.00958.15147-.02866s.08704-.04642.122-.08188l.07205.07697c-.04258.04692-.09428.08326-.15513.10889-.0609.02564-.1276.03848-.20022.03848-.08622,0-.16268-.0187-.22926-.05605-.06657-.03741-.11834-.08994-.15512-.15765-.03691-.06771-.0553-.14517-.0553-.23253s.0187-.1647.05605-.2321c.03741-.06745.08969-.11986.15682-.15721.06715-.03741.14329-.05612.22844-.05612.13862,0,.24318.04434.31359.13308Zm-.10845.05359c-.05329-.04969-.12269-.0745-.20841-.0745-.08408,0-.15405.02513-.21005.07532-.05593.0502-.0888.11734-.09863.20142h.60344c-.00435-.08515-.0332-.15254-.08635-.20224Z"/>
        <path class="cls-1" d="m12.28272,4.67937c.05921.0609.0888.1448.0888.25181v.5453h-.131v-.51009c0-.07804-.02211-.13894-.06632-.18259-.04422-.04365-.10537-.0655-.18341-.0655-.08622.00107-.15532.02746-.20715.07898-.05183.05165-.08188.11973-.09007.20432v.47489h-.13018v-.88346h.13018v.19405c.06059-.13101.17465-.19733.34225-.19897.10537,0,.18762.03042.24689.09127Z"/>
        <path class="cls-1" d="m12.75389,4.27489c.01638.01726.02456.03867.02456.0643,0,.02564-.00818.04724-.02456.06469-.01638.01745-.03685.0262-.06141.0262s-.04491-.00856-.06097-.02582c-.01612-.01713-.02419-.03886-.02419-.06506,0-.02563.00806-.04704.02419-.0643.01606-.01713.0364-.02576.06097-.02576s.04503.00863.06141.02576Zm-.12445,1.20158v-.88346h.12854v.88346h-.12854Z"/>
        <path class="cls-1" d="m13.70865,4.72283c.07041.08868.10209.20973.09497.3631h-.72052c.0109.08622.04547.15475.10355.20551.0582.05076.13038.07615.2166.07615.05461,0,.10505-.00958.15147-.02866.04642-.01908.08705-.04642.122-.08188l.07205.07697c-.04257.04692-.09428.08326-.15512.10889-.06091.02564-.12761.03848-.20022.03848-.08622,0-.16269-.0187-.22926-.05605-.06657-.03741-.11835-.08994-.15513-.15765-.03691-.06771-.0553-.14517-.0553-.23253s.0187-.1647.05605-.2321c.03741-.06745.08969-.11986.15683-.15721.06714-.03741.14328-.05612.22844-.05612.13862,0,.24318.04434.31359.13308Zm-.10846.05359c-.05328-.04969-.12269-.0745-.20841-.0745-.08408,0-.15406.02513-.21005.07532-.05592.0502-.0888.11734-.09863.20142h.60344c-.00435-.08515-.0332-.15254-.08635-.20224Z"/>
        <path class="cls-1" d="m14.24986,4.64095c.05347-.03414.11765-.05178.19241-.05285v.13183c-.0917-.00107-.1654.02444-.22107.07659-.05568.05209-.08761.12237-.09579.2108v.46916h-.13019v-.88346h.13019v.19569c.02947-.06443.07098-.11368.12445-.14776Z"/>
        <path class="cls-1" d="m14.68469,4.44727h-.12527l.2006-.22844.13265.06387-.20797.16457Zm-.0999,1.0292v-.88346h.12855v.88346h-.12855Z"/>
        <path class="cls-1" d="m15.54604,5.34056c-.07041.09498-.17824.14247-.32341.14247-.05952,0-.11205-.01171-.15765-.03521-.04553-.0235-.08074-.0558-.10556-.09706-.02488-.04119-.03728-.08716-.03728-.13793,0-.07696.0291-.13812.08717-.1834.05819-.04529.13938-.06853.24361-.0696h.28984v-.05158c0-.06607-.02003-.11696-.06021-.15267-.04005-.03578-.09888-.05366-.17641-.05366-.0895,0-.18284.03357-.28002.10071l-.05486-.0958c.06279-.0415.12061-.07167.17358-.09044.05297-.0189.1152-.02828.18668-.02828.10865,0,.19229.02677.25093.08024.0587.05347.08862.12829.08969.22434l.00164.58378h-.12773v-.13592Zm-.10644-.02419c.05297-.03514.08786-.08364.1048-.1453v-.10562h-.27511c-.14958,0-.22434.04749-.22434.14247,0,.04913.01839.0883.0553.11752.03678.02916.0861.04378.14776.04378.07476,0,.13862-.01757.19159-.05285Z"/>
      </g>
    </g>
  </g>
</svg>